<?xml version="1.0" encoding="utf-8"?>
<svg version="1.1" xmlns:xlink="http://www.w3.org/1999/xlink" width="31px" height="45px" xmlns="http://www.w3.org/2000/svg">
  <defs>
    <mask fill="white" id="clip97">
      <path d="M 0 18.1159420289855  L 0 0  L 11 0  L 11 18.1159420289855  L 5.72000000000003 24.8188405797102  L 0 18.1159420289855  Z " fill-rule="evenodd" />
    </mask>
    <filter x="174px" y="0px" width="31px" height="45px" filterUnits="userSpaceOnUse" id="filter98">
      <feOffset dx="2" dy="2" in="SourceAlpha" result="shadowOffsetInner" />
      <feGaussianBlur stdDeviation="5" in="shadowOffsetInner" result="shadowGaussian" />
      <feComposite in2="shadowGaussian" operator="atop" in="SourceAlpha" result="shadowComposite" />
      <feColorMatrix type="matrix" values="0 0 0 0 0.184313725490196  0 0 0 0 0.470588235294118  0 0 0 0 1  0 0 0 0.627450980392157 0  " in="shadowComposite" />
    </filter>
    <g id="widget99">
      <path d="M 0 18.1159420289855  L 0 0  L 11 0  L 11 18.1159420289855  L 5.72000000000003 24.8188405797102  L 0 18.1159420289855  Z " fill-rule="nonzero" fill="#ffffff" stroke="none" fill-opacity="0" transform="matrix(1 0 0 1 182 8 )" />
      <path d="M 0 18.1159420289855  L 0 0  L 11 0  L 11 18.1159420289855  L 5.72000000000003 24.8188405797102  L 0 18.1159420289855  Z " stroke-width="6" stroke="#2f78ff" fill="none" transform="matrix(1 0 0 1 182 8 )" mask="url(#clip97)" />
    </g>
  </defs>
  <g transform="matrix(1 0 0 1 -174 0 )">
    <use xlink:href="#widget99" filter="url(#filter98)" />
    <use xlink:href="#widget99" />
  </g>
</svg>